<?xml version="1.0" encoding="UTF-8" standalone="no"?>
<!DOCTYPE svg PUBLIC "-//W3C//DTD SVG 1.1//EN"
 "http://www.w3.org/Graphics/SVG/1.1/DTD/svg11.dtd">
<!-- Generated by graphviz version 2.40.1 (20161225.0304)
 -->
<!-- Title: ShinyAppStructure Pages: 1 -->
<svg width="1726pt" height="328pt"
 viewBox="0.00 0.00 1725.70 328.40" xmlns="http://www.w3.org/2000/svg" xmlns:xlink="http://www.w3.org/1999/xlink">
<g id="graph0" class="graph" transform="scale(1 1) rotate(0) translate(4 324.4)">
<title>ShinyAppStructure</title>
<polygon fill="#ffffff" stroke="transparent" points="-4,4 -4,-324.4 1721.696,-324.4 1721.696,4 -4,4"/>
<!-- root -->
<g id="node1" class="node">
<title>root</title>
<polygon fill="#e6f3ff" stroke="#000000" points="996.5339,-320.4 993.5339,-324.4 972.5339,-324.4 969.5339,-320.4 926.1597,-320.4 926.1597,-284.4 996.5339,-284.4 996.5339,-320.4"/>
<text text-anchor="middle" x="961.3468" y="-298.8" font-family="Helvetica Bold" font-size="12.00" fill="#000000">ShinyApp/</text>
</g>
<!-- data -->
<g id="node2" class="node">
<title>data</title>
<polygon fill="#87ceeb" stroke="#000000" points="94.5409,-226.3005 91.5409,-230.3005 70.5409,-230.3005 67.5409,-226.3005 .1527,-226.3005 .1527,-189.6995 94.5409,-189.6995 94.5409,-226.3005"/>
<text text-anchor="middle" x="47.3468" y="-211.6" font-family="Helvetica Bold" font-size="12.00" fill="#000000">data/</text>
<text text-anchor="middle" x="47.3468" y="-197.2" font-family="Helvetica Bold" font-size="12.00" fill="#000000">Static datasets</text>
</g>
<!-- root&#45;&gt;data -->
<g id="edge1" class="edge">
<title>root&#45;&gt;data</title>
<path fill="none" stroke="#000000" d="M926.077,-313C758.1048,-313 47.3468,-313 47.3468,-313 47.3468,-313 47.3468,-236.7719 47.3468,-236.7719"/>
<polygon fill="#000000" stroke="#000000" points="50.8469,-236.7719 47.3468,-226.7719 43.8469,-236.7719 50.8469,-236.7719"/>
</g>
<!-- logs -->
<g id="node3" class="node">
<title>logs</title>
<polygon fill="#20b2aa" stroke="#000000" points="240.3444,-226.3005 237.3444,-230.3005 216.3444,-230.3005 213.3444,-226.3005 152.3492,-226.3005 152.3492,-189.6995 240.3444,-189.6995 240.3444,-226.3005"/>
<text text-anchor="middle" x="196.3468" y="-211.6" font-family="Helvetica Bold" font-size="12.00" fill="#000000">logs/</text>
<text text-anchor="middle" x="196.3468" y="-197.2" font-family="Helvetica Bold" font-size="12.00" fill="#000000">Error tracking</text>
</g>
<!-- root&#45;&gt;logs -->
<g id="edge2" class="edge">
<title>root&#45;&gt;logs</title>
<path fill="none" stroke="#000000" d="M925.9835,-306C775.5313,-306 196.3468,-306 196.3468,-306 196.3468,-306 196.3468,-236.4331 196.3468,-236.4331"/>
<polygon fill="#000000" stroke="#000000" points="199.8469,-236.433 196.3468,-226.4331 192.8469,-236.4331 199.8469,-236.433"/>
</g>
<!-- plots -->
<g id="node4" class="node">
<title>plots</title>
<polygon fill="#4682b4" stroke="#000000" points="446.2113,-226.3005 443.2113,-230.3005 422.2113,-230.3005 419.2113,-226.3005 298.4823,-226.3005 298.4823,-189.6995 446.2113,-189.6995 446.2113,-226.3005"/>
<text text-anchor="middle" x="372.3468" y="-211.6" font-family="Helvetica Bold" font-size="12.00" fill="#000000">plots/</text>
<text text-anchor="middle" x="372.3468" y="-197.2" font-family="Helvetica Bold" font-size="12.00" fill="#000000">Generated visualizations</text>
</g>
<!-- root&#45;&gt;plots -->
<g id="edge3" class="edge">
<title>root&#45;&gt;plots</title>
<path fill="none" stroke="#000000" d="M925.8286,-298C798.4862,-298 372.3468,-298 372.3468,-298 372.3468,-298 372.3468,-236.6481 372.3468,-236.6481"/>
<polygon fill="#000000" stroke="#000000" points="375.8469,-236.648 372.3468,-226.6481 368.8469,-236.6481 375.8469,-236.648"/>
</g>
<!-- reports -->
<g id="node5" class="node">
<title>reports</title>
<polygon fill="#48d1cc" stroke="#000000" points="634.512,-226.3005 631.512,-230.3005 610.512,-230.3005 607.512,-226.3005 504.1816,-226.3005 504.1816,-189.6995 634.512,-189.6995 634.512,-226.3005"/>
<text text-anchor="middle" x="569.3468" y="-211.6" font-family="Helvetica Bold" font-size="12.00" fill="#000000">reports/</text>
<text text-anchor="middle" x="569.3468" y="-197.2" font-family="Helvetica Bold" font-size="12.00" fill="#000000">Dynamic PDF reports</text>
</g>
<!-- root&#45;&gt;reports -->
<g id="edge4" class="edge">
<title>root&#45;&gt;reports</title>
<path fill="none" stroke="#000000" d="M925.868,-291C829.3737,-291 569.3468,-291 569.3468,-291 569.3468,-291 569.3468,-236.4204 569.3468,-236.4204"/>
<polygon fill="#000000" stroke="#000000" points="572.8469,-236.4204 569.3468,-226.4204 565.8469,-236.4204 572.8469,-236.4204"/>
</g>
<!-- rsconnect -->
<g id="node6" class="node">
<title>rsconnect</title>
<polygon fill="#7b68ee" stroke="#000000" points="814.2013,-226.3005 811.2013,-230.3005 790.2013,-230.3005 787.2013,-226.3005 692.4923,-226.3005 692.4923,-189.6995 814.2013,-189.6995 814.2013,-226.3005"/>
<text text-anchor="middle" x="753.3468" y="-211.6" font-family="Helvetica Bold" font-size="12.00" fill="#000000">rsconnect/</text>
<text text-anchor="middle" x="753.3468" y="-197.2" font-family="Helvetica Bold" font-size="12.00" fill="#000000">Deployment configs</text>
</g>
<!-- root&#45;&gt;rsconnect -->
<g id="edge5" class="edge">
<title>root&#45;&gt;rsconnect</title>
<path fill="none" stroke="#000000" d="M942.1404,-284.2889C942.1404,-259.2205 942.1404,-217 942.1404,-217 942.1404,-217 824.1215,-217 824.1215,-217"/>
<polygon fill="#000000" stroke="#000000" points="824.1215,-213.5001 814.1215,-217 824.1215,-220.5001 824.1215,-213.5001"/>
</g>
<!-- www -->
<g id="node7" class="node">
<title>www</title>
<polygon fill="#ba55d3" stroke="#000000" points="1008.527,-36.7005 1005.527,-40.7005 984.527,-40.7005 981.527,-36.7005 930.1666,-36.7005 930.1666,-.0995 1008.527,-.0995 1008.527,-36.7005"/>
<text text-anchor="middle" x="969.3468" y="-22" font-family="Helvetica Bold" font-size="12.00" fill="#000000">www/</text>
<text text-anchor="middle" x="969.3468" y="-7.6" font-family="Helvetica Bold" font-size="12.00" fill="#000000">Web assets</text>
</g>
<!-- root&#45;&gt;www -->
<g id="edge6" class="edge">
<title>root&#45;&gt;www</title>
<path fill="none" stroke="#000000" d="M954.2738,-284.2025C954.2738,-284.2025 954.2738,-46.8135 954.2738,-46.8135"/>
<polygon fill="#000000" stroke="#000000" points="957.7739,-46.8135 954.2738,-36.8135 950.7739,-46.8135 957.7739,-46.8135"/>
</g>
<!-- ui -->
<g id="node8" class="node">
<title>ui</title>
<text text-anchor="middle" x="1036.3468" y="-116.8" font-family="Helvetica Bold" font-size="12.00" fill="#000000">ui.R</text>
<text text-anchor="middle" x="1036.3468" y="-102.4" font-family="Helvetica Bold" font-size="12.00" fill="#000000">User Interface</text>
</g>
<!-- root&#45;&gt;ui -->
<g id="edge7" class="edge">
<title>root&#45;&gt;ui</title>
<path fill="none" stroke="#000000" d="M966.4072,-284.2395C966.4072,-236.8342 966.4072,-113 966.4072,-113 966.4072,-113 980.4764,-113 980.4764,-113"/>
<polygon fill="#000000" stroke="#000000" points="980.4765,-116.5001 990.4764,-113 980.4764,-109.5001 980.4765,-116.5001"/>
</g>
<!-- server -->
<g id="node9" class="node">
<title>server</title>
<text text-anchor="middle" x="1418.3468" y="-116.8" font-family="Helvetica Bold" font-size="12.00" fill="#000000">server.R</text>
<text text-anchor="middle" x="1418.3468" y="-102.4" font-family="Helvetica Bold" font-size="12.00" fill="#000000">Server Logic</text>
</g>
<!-- root&#45;&gt;server -->
<g id="edge8" class="edge">
<title>root&#45;&gt;server</title>
<path fill="none" stroke="#000000" d="M996.7401,-298C1106.2512,-298 1432.2375,-298 1432.2375,-298 1432.2375,-298 1432.2375,-141.5949 1432.2375,-141.5949"/>
<polygon fill="#000000" stroke="#000000" points="1435.7376,-141.5949 1432.2375,-131.5949 1428.7376,-141.595 1435.7376,-141.5949"/>
</g>
<!-- global -->
<g id="node10" class="node">
<title>global</title>
<text text-anchor="middle" x="1288.3468" y="-22" font-family="Helvetica Bold" font-size="12.00" fill="#000000">global.R</text>
<text text-anchor="middle" x="1288.3468" y="-7.6" font-family="Helvetica Bold" font-size="12.00" fill="#000000">Shared Resources</text>
</g>
<!-- root&#45;&gt;global -->
<g id="edge9" class="edge">
<title>root&#45;&gt;global</title>
<path fill="none" stroke="#000000" d="M996.6522,-291C1081.2072,-291 1288.3468,-291 1288.3468,-291 1288.3468,-291 1288.3468,-46.7093 1288.3468,-46.7093"/>
<polygon fill="#000000" stroke="#000000" points="1291.8469,-46.7093 1288.3468,-36.7093 1284.8469,-46.7094 1291.8469,-46.7093"/>
</g>
<!-- helpers -->
<g id="node11" class="node">
<title>helpers</title>
<text text-anchor="middle" x="1474.3468" y="-22" font-family="Helvetica Bold" font-size="12.00" fill="#000000">helpers.R</text>
<text text-anchor="middle" x="1474.3468" y="-7.6" font-family="Helvetica Bold" font-size="12.00" fill="#000000">Utility Functions</text>
</g>
<!-- root&#45;&gt;helpers -->
<g id="edge10" class="edge">
<title>root&#45;&gt;helpers</title>
<path fill="none" stroke="#000000" d="M996.5986,-306C1115.1958,-306 1492.3496,-306 1492.3496,-306 1492.3496,-306 1492.3496,-46.8282 1492.3496,-46.8282"/>
<polygon fill="#000000" stroke="#000000" points="1495.8497,-46.8281 1492.3496,-36.8282 1488.8497,-46.8282 1495.8497,-46.8281"/>
</g>
<!-- simulation -->
<g id="node12" class="node">
<title>simulation</title>
<text text-anchor="middle" x="1655.3468" y="-22" font-family="Helvetica Bold" font-size="12.00" fill="#000000">simulation.R</text>
<text text-anchor="middle" x="1655.3468" y="-7.6" font-family="Helvetica Bold" font-size="12.00" fill="#000000">Computation Engine</text>
</g>
<!-- root&#45;&gt;simulation -->
<g id="edge11" class="edge">
<title>root&#45;&gt;simulation</title>
<path fill="none" stroke="#000000" d="M996.793,-313C1141.0214,-313 1676.1299,-313 1676.1299,-313 1676.1299,-313 1676.1299,-46.8285 1676.1299,-46.8285"/>
<polygon fill="#000000" stroke="#000000" points="1679.63,-46.8285 1676.1299,-36.8285 1672.63,-46.8286 1679.63,-46.8285"/>
</g>
<!-- app -->
<g id="node13" class="node">
<title>app</title>
<text text-anchor="middle" x="1160.3468" y="-211.6" font-family="Helvetica Bold" font-size="12.00" fill="#000000">app.R</text>
<text text-anchor="middle" x="1160.3468" y="-197.2" font-family="Helvetica Bold" font-size="12.00" fill="#000000">Main Entry Point</text>
</g>
<!-- root&#45;&gt;app -->
<g id="edge12" class="edge">
<title>root&#45;&gt;app</title>
<path fill="none" stroke="#000000" d="M978.5406,-284.1987C978.5406,-256.7672 978.5406,-208 978.5406,-208 978.5406,-208 1098.2484,-208 1098.2484,-208"/>
<polygon fill="#000000" stroke="#000000" points="1098.2485,-211.5001 1108.2484,-208 1098.2484,-204.5001 1098.2485,-211.5001"/>
</g>
<!-- ui&#45;&gt;www -->
<g id="edge19" class="edge">
<title>ui&#45;&gt;www</title>
<path fill="none" stroke="#000000" d="M999.6803,-94.4706C999.6803,-94.4706 999.6803,-46.7679 999.6803,-46.7679"/>
<polygon fill="#000000" stroke="#000000" points="1003.1804,-46.7679 999.6803,-36.7679 996.1804,-46.768 1003.1804,-46.7679"/>
</g>
<!-- server&#45;&gt;global -->
<g id="edge16" class="edge">
<title>server&#45;&gt;global</title>
<path fill="none" stroke="#000000" d="M1400.344,-94.8445C1400.344,-67.1805 1400.344,-18 1400.344,-18 1400.344,-18 1356.3137,-18 1356.3137,-18"/>
<polygon fill="#000000" stroke="#000000" points="1356.3138,-14.5001 1346.3137,-18 1356.3137,-21.5001 1356.3138,-14.5001"/>
</g>
<!-- server&#45;&gt;helpers -->
<g id="edge17" class="edge">
<title>server&#45;&gt;helpers</title>
<path fill="none" stroke="#000000" d="M1442.016,-94.4706C1442.016,-94.4706 1442.016,-46.7679 1442.016,-46.7679"/>
<polygon fill="#000000" stroke="#000000" points="1445.5161,-46.7679 1442.016,-36.7679 1438.5161,-46.768 1445.5161,-46.7679"/>
</g>
<!-- server&#45;&gt;simulation -->
<g id="edge18" class="edge">
<title>server&#45;&gt;simulation</title>
<path fill="none" stroke="#000000" d="M1460.0356,-113C1522.8657,-113 1634.5637,-113 1634.5637,-113 1634.5637,-113 1634.5637,-47.0899 1634.5637,-47.0899"/>
<polygon fill="#000000" stroke="#000000" points="1638.0638,-47.0899 1634.5637,-37.0899 1631.0638,-47.09 1638.0638,-47.0899"/>
</g>
<!-- app&#45;&gt;ui -->
<g id="edge13" class="edge">
<title>app&#45;&gt;ui</title>
<path fill="none" stroke="#000000" d="M1108.3331,-198C1075.5402,-198 1039.3548,-198 1039.3548,-198 1039.3548,-198 1039.3548,-141.6003 1039.3548,-141.6003"/>
<polygon fill="#000000" stroke="#000000" points="1042.8549,-141.6003 1039.3548,-131.6003 1035.8549,-141.6004 1042.8549,-141.6003"/>
</g>
<!-- app&#45;&gt;server -->
<g id="edge14" class="edge">
<title>app&#45;&gt;server</title>
<path fill="none" stroke="#000000" d="M1212.415,-208C1284.1072,-208 1404.4561,-208 1404.4561,-208 1404.4561,-208 1404.4561,-141.9294 1404.4561,-141.9294"/>
<polygon fill="#000000" stroke="#000000" points="1407.9562,-141.9294 1404.4561,-131.9294 1400.9562,-141.9295 1407.9562,-141.9294"/>
</g>
<!-- app&#45;&gt;global -->
<g id="edge15" class="edge">
<title>app&#45;&gt;global</title>
<path fill="none" stroke="#000000" d="M1160.3468,-189.4361C1160.3468,-141.6271 1160.3468,-18 1160.3468,-18 1160.3468,-18 1220.339,-18 1220.339,-18"/>
<polygon fill="#000000" stroke="#000000" points="1220.339,-21.5001 1230.339,-18 1220.339,-14.5001 1220.339,-21.5001"/>
</g>
</g>
</svg>

