<?xml version="1.0" encoding="UTF-8" standalone="no"?>
<!DOCTYPE svg PUBLIC "-//W3C//DTD SVG 1.1//EN"
 "http://www.w3.org/Graphics/SVG/1.1/DTD/svg11.dtd">
<!-- Generated by graphviz version 2.40.1 (20161225.0304)
 -->
<!-- Title: ShinyArchitecture Pages: 1 -->
<svg width="1025pt" height="1089pt"
 viewBox="0.00 0.00 1025.42 1089.40" xmlns="http://www.w3.org/2000/svg" xmlns:xlink="http://www.w3.org/1999/xlink">
<g id="graph0" class="graph" transform="scale(1 1) rotate(0) translate(4 1085.4)">
<title>ShinyArchitecture</title>
<polygon fill="#ffffff" stroke="transparent" points="-4,4 -4,-1085.4 1021.4166,-1085.4 1021.4166,4 -4,4"/>
<g id="clust1" class="cluster">
<title>cluster_client</title>
<path fill="#f0e6ff" stroke="#000000" d="M363,-588.2C363,-588.2 670,-588.2 670,-588.2 676,-588.2 682,-594.2 682,-600.2 682,-600.2 682,-934.6 682,-934.6 682,-940.6 676,-946.6 670,-946.6 670,-946.6 363,-946.6 363,-946.6 357,-946.6 351,-940.6 351,-934.6 351,-934.6 351,-600.2 351,-600.2 351,-594.2 357,-588.2 363,-588.2"/>
<text text-anchor="middle" x="516.5" y="-930" font-family="Arial" font-size="14.00" fill="#000000">Client Layer: User Interface</text>
</g>
<g id="clust2" class="cluster">
<title>cluster_server</title>
<path fill="#e6f2ff" stroke="#000000" d="M20,-142.6C20,-142.6 331,-142.6 331,-142.6 337,-142.6 343,-148.6 343,-154.6 343,-154.6 343,-1061.4 343,-1061.4 343,-1067.4 337,-1073.4 331,-1073.4 331,-1073.4 20,-1073.4 20,-1073.4 14,-1073.4 8,-1067.4 8,-1061.4 8,-1061.4 8,-154.6 8,-154.6 8,-148.6 14,-142.6 20,-142.6"/>
<text text-anchor="middle" x="175.5" y="-1056.8" font-family="Arial" font-size="14.00" fill="#000000">Server Layer: Application Logic</text>
</g>
<g id="clust3" class="cluster">
<title>cluster_state</title>
<path fill="#e0ffff" stroke="#000000" d="M177,-150.6C177,-150.6 323,-150.6 323,-150.6 329,-150.6 335,-156.6 335,-162.6 335,-162.6 335,-546.2 335,-546.2 335,-552.2 329,-558.2 323,-558.2 323,-558.2 177,-558.2 177,-558.2 171,-558.2 165,-552.2 165,-546.2 165,-546.2 165,-162.6 165,-162.6 165,-156.6 171,-150.6 177,-150.6"/>
<text text-anchor="middle" x="250" y="-541.6" font-family="Arial" font-size="14.00" fill="#000000">State Management</text>
</g>
<g id="clust4" class="cluster">
<title>cluster_backend</title>
<path fill="#f0fff0" stroke="#000000" d="M116,-8C116,-8 396,-8 396,-8 402,-8 408,-14 408,-20 408,-20 408,-92.8 408,-92.8 408,-98.8 402,-104.8 396,-104.8 396,-104.8 116,-104.8 116,-104.8 110,-104.8 104,-98.8 104,-92.8 104,-92.8 104,-20 104,-20 104,-14 110,-8 116,-8"/>
<text text-anchor="middle" x="256" y="-88.2" font-family="Arial" font-size="14.00" fill="#000000">Backend Services</text>
</g>
<!-- UI -->
<g id="node1" class="node">
<title>UI</title>
<polygon fill="#ff99cc" stroke="#000000" points="674.4699,-913.8 553.5301,-913.8 553.5301,-857.8 674.4699,-857.8 674.4699,-913.8"/>
<text text-anchor="middle" x="614" y="-900.8" font-family="Arial Bold" font-size="10.00" fill="#000000">UI Components</text>
<text text-anchor="middle" x="614" y="-888.8" font-family="Arial Bold" font-size="10.00" fill="#000000">• Responsive Design</text>
<text text-anchor="middle" x="614" y="-876.8" font-family="Arial Bold" font-size="10.00" fill="#000000">• Interactive Elements</text>
<text text-anchor="middle" x="614" y="-864.8" font-family="Arial Bold" font-size="10.00" fill="#000000">• Real&#45;time Feedback</text>
</g>
<!-- Inputs -->
<g id="node2" class="node">
<title>Inputs</title>
<polygon fill="#99ccff" stroke="#000000" points="543.2433,-652.2 434.7567,-652.2 434.7567,-596.2 543.2433,-596.2 543.2433,-652.2"/>
<text text-anchor="middle" x="489" y="-639.2" font-family="Arial Bold" font-size="10.00" fill="#000000">Input Handlers</text>
<text text-anchor="middle" x="489" y="-627.2" font-family="Arial Bold" font-size="10.00" fill="#000000">• Action Buttons</text>
<text text-anchor="middle" x="489" y="-615.2" font-family="Arial Bold" font-size="10.00" fill="#000000">• Dropdown Menus</text>
<text text-anchor="middle" x="489" y="-603.2" font-family="Arial Bold" font-size="10.00" fill="#000000">• Text Inputs</text>
</g>
<!-- UI&#45;&gt;Inputs -->
<g id="edge3" class="edge">
<title>UI&#45;&gt;Inputs</title>
<path fill="none" stroke="#666666" d="M553.696,-885C535.0003,-885 519.2045,-885 519.2045,-885 519.2045,-885 519.2045,-659.6066 519.2045,-659.6066"/>
<polygon fill="#666666" stroke="#666666" points="519.2045,-652.6066 522.3546,-659.6066 519.2045,-656.1066 519.2046,-659.6066 519.2046,-659.6066 519.2046,-659.6066 519.2045,-656.1066 516.0546,-659.6067 519.2045,-652.6066 519.2045,-652.6066"/>
</g>
<!-- ServerLogic -->
<g id="node6" class="node">
<title>ServerLogic</title>
<polygon fill="#ffff99" stroke="#000000" points="327.7482,-783 194.2518,-783 194.2518,-727 327.7482,-727 327.7482,-783"/>
<text text-anchor="middle" x="261" y="-770" font-family="Arial Bold" font-size="10.00" fill="#000000">server.R</text>
<text text-anchor="middle" x="261" y="-758" font-family="Arial Bold" font-size="10.00" fill="#000000">• Core Processing</text>
<text text-anchor="middle" x="261" y="-746" font-family="Arial Bold" font-size="10.00" fill="#000000">• Reactive Computations</text>
<text text-anchor="middle" x="261" y="-734" font-family="Arial Bold" font-size="10.00" fill="#000000">• Error Handling</text>
</g>
<!-- Inputs&#45;&gt;ServerLogic -->
<g id="edge4" class="edge">
<title>Inputs&#45;&gt;ServerLogic</title>
<path fill="none" stroke="#666666" d="M434.548,-624C386.0486,-624 322.7025,-624 322.7025,-624 322.7025,-624 322.7025,-719.8972 322.7025,-719.8972"/>
<polygon fill="#666666" stroke="#666666" points="322.7025,-726.8972 319.5526,-719.8972 322.7025,-723.3972 322.7026,-719.8972 322.7026,-719.8972 322.7026,-719.8972 322.7025,-723.3972 325.8526,-719.8973 322.7025,-726.8972 322.7025,-726.8972"/>
<text text-anchor="middle" x="378.0039" y="-685.4" font-family="Times,serif" font-size="14.00" fill="#000000">User Interactions</text>
</g>
<!-- Outputs -->
<g id="node3" class="node">
<title>Outputs</title>
<polygon fill="#99ffcc" stroke="#000000" points="495.0757,-913.8 358.9243,-913.8 358.9243,-857.8 495.0757,-857.8 495.0757,-913.8"/>
<text text-anchor="middle" x="427" y="-900.8" font-family="Arial Bold" font-size="10.00" fill="#000000">Output Renderers</text>
<text text-anchor="middle" x="427" y="-888.8" font-family="Arial Bold" font-size="10.00" fill="#000000">• Dynamic Plots</text>
<text text-anchor="middle" x="427" y="-876.8" font-family="Arial Bold" font-size="10.00" fill="#000000">• Interactive Tables</text>
<text text-anchor="middle" x="427" y="-864.8" font-family="Arial Bold" font-size="10.00" fill="#000000">• Statistical Visualizations</text>
</g>
<!-- Client -->
<g id="node11" class="node">
<title>Client</title>
<ellipse fill="#e0e0e0" stroke="#000000" cx="748" cy="-755" rx="46.0648" ry="18"/>
<text text-anchor="middle" x="748" y="-752" font-family="Arial Bold" font-size="10.00" fill="#000000">User Browser</text>
</g>
<!-- Outputs&#45;&gt;Client -->
<g id="edge10" class="edge">
<title>Outputs&#45;&gt;Client</title>
<path fill="none" stroke="#666666" d="M465.083,-857.5256C465.083,-818.7984 465.083,-754 465.083,-754 465.083,-754 694.9148,-754 694.9148,-754"/>
<polygon fill="#666666" stroke="#666666" points="701.9148,-754 694.9149,-757.1501 698.4148,-754 694.9148,-754.0001 694.9148,-754.0001 694.9148,-754.0001 698.4148,-754 694.9148,-750.8501 701.9148,-754 701.9148,-754"/>
</g>
<!-- GlobalConfig -->
<g id="node4" class="node">
<title>GlobalConfig</title>
<polygon fill="#ffd700" stroke="#000000" points="135.8585,-1040.6 16.1415,-1040.6 16.1415,-984.6 135.8585,-984.6 135.8585,-1040.6"/>
<text text-anchor="middle" x="76" y="-1027.6" font-family="Arial Bold" font-size="10.00" fill="#000000">global.R</text>
<text text-anchor="middle" x="76" y="-1015.6" font-family="Arial Bold" font-size="10.00" fill="#000000">• Package Imports</text>
<text text-anchor="middle" x="76" y="-1003.6" font-family="Arial Bold" font-size="10.00" fill="#000000">• Configuration</text>
<text text-anchor="middle" x="76" y="-991.6" font-family="Arial Bold" font-size="10.00" fill="#000000">• Constant Definitions</text>
</g>
<!-- GlobalConfig&#45;&gt;ServerLogic -->
<g id="edge11" class="edge">
<title>GlobalConfig&#45;&gt;ServerLogic</title>
<path fill="none" stroke="#666666" d="M123.9485,-984.433C123.9485,-917.4095 123.9485,-754 123.9485,-754 123.9485,-754 187.0802,-754 187.0802,-754"/>
<polygon fill="#666666" stroke="#666666" points="194.0802,-754 187.0802,-757.1501 190.5802,-754 187.0802,-754.0001 187.0802,-754.0001 187.0802,-754.0001 190.5802,-754 187.0801,-750.8501 194.0802,-754 194.0802,-754"/>
</g>
<!-- UILogic -->
<g id="node5" class="node">
<title>UILogic</title>
<polygon fill="#98fb98" stroke="#000000" points="334.5896,-1040.6 193.4104,-1040.6 193.4104,-984.6 334.5896,-984.6 334.5896,-1040.6"/>
<text text-anchor="middle" x="264" y="-1027.6" font-family="Arial Bold" font-size="10.00" fill="#000000">ui.R</text>
<text text-anchor="middle" x="264" y="-1015.6" font-family="Arial Bold" font-size="10.00" fill="#000000">• Layout Design</text>
<text text-anchor="middle" x="264" y="-1003.6" font-family="Arial Bold" font-size="10.00" fill="#000000">• Responsive Components</text>
<text text-anchor="middle" x="264" y="-991.6" font-family="Arial Bold" font-size="10.00" fill="#000000">• Theme Management</text>
</g>
<!-- Server -->
<g id="node12" class="node">
<title>Server</title>
<ellipse fill="#e0e0e0" stroke="#000000" cx="776" cy="-885.8" rx="44.072" ry="18"/>
<text text-anchor="middle" x="776" y="-882.8" font-family="Arial Bold" font-size="10.00" fill="#000000">Shiny Server</text>
</g>
<!-- UILogic&#45;&gt;Server -->
<g id="edge12" class="edge">
<title>UILogic&#45;&gt;Server</title>
<path fill="none" stroke="#666666" d="M334.6539,-1012C475.1089,-1012 776,-1012 776,-1012 776,-1012 776,-910.8814 776,-910.8814"/>
<polygon fill="#666666" stroke="#666666" points="776,-903.8814 779.1501,-910.8813 776,-907.3814 776.0001,-910.8814 776.0001,-910.8814 776.0001,-910.8814 776,-907.3814 772.8501,-910.8814 776,-903.8814 776,-903.8814"/>
</g>
<!-- ServerLogic&#45;&gt;Outputs -->
<g id="edge9" class="edge">
<title>ServerLogic&#45;&gt;Outputs</title>
<path fill="none" stroke="#666666" d="M327.9001,-777C354.7917,-777 379.5553,-777 379.5553,-777 379.5553,-777 379.5553,-850.7813 379.5553,-850.7813"/>
<polygon fill="#666666" stroke="#666666" points="379.5553,-857.7813 376.4053,-850.7813 379.5553,-854.2813 379.5553,-850.7813 379.5553,-850.7813 379.5553,-850.7813 379.5553,-854.2813 382.7053,-850.7813 379.5553,-857.7813 379.5553,-857.7813"/>
<text text-anchor="middle" x="374.1743" y="-816.2" font-family="Times,serif" font-size="14.00" fill="#000000">Generate Outputs</text>
</g>
<!-- ReactiveValues -->
<g id="node7" class="node">
<title>ReactiveValues</title>
<polygon fill="#87cefa" stroke="#000000" points="318.4688,-525.4 187.5312,-525.4 187.5312,-469.4 318.4688,-469.4 318.4688,-525.4"/>
<text text-anchor="middle" x="253" y="-512.4" font-family="Arial Bold" font-size="10.00" fill="#000000">Reactive Values</text>
<text text-anchor="middle" x="253" y="-500.4" font-family="Arial Bold" font-size="10.00" fill="#000000">• Dynamic Data Storage</text>
<text text-anchor="middle" x="253" y="-488.4" font-family="Arial Bold" font-size="10.00" fill="#000000">• State Tracking</text>
<text text-anchor="middle" x="253" y="-476.4" font-family="Arial Bold" font-size="10.00" fill="#000000">• Synchronization</text>
</g>
<!-- ServerLogic&#45;&gt;ReactiveValues -->
<g id="edge5" class="edge">
<title>ServerLogic&#45;&gt;ReactiveValues</title>
<path fill="none" stroke="#666666" d="M256.305,-726.9419C256.305,-726.9419 256.305,-532.4235 256.305,-532.4235"/>
<polygon fill="#666666" stroke="#666666" points="256.305,-525.4235 259.4551,-532.4235 256.305,-528.9235 256.3051,-532.4235 256.3051,-532.4235 256.3051,-532.4235 256.305,-528.9235 253.1551,-532.4235 256.305,-525.4235 256.305,-525.4235"/>
<text text-anchor="middle" x="293.6287" y="-620" font-family="Times,serif" font-size="14.00" fill="#000000">Process Inputs</text>
</g>
<!-- DataProcessing -->
<g id="node8" class="node">
<title>DataProcessing</title>
<polygon fill="#dda0dd" stroke="#000000" points="327.3424,-214.6 172.6576,-214.6 172.6576,-158.6 327.3424,-158.6 327.3424,-214.6"/>
<text text-anchor="middle" x="250" y="-201.6" font-family="Arial Bold" font-size="10.00" fill="#000000">Data &amp; Simulation</text>
<text text-anchor="middle" x="250" y="-189.6" font-family="Arial Bold" font-size="10.00" fill="#000000">• Statistical Modeling</text>
<text text-anchor="middle" x="250" y="-177.6" font-family="Arial Bold" font-size="10.00" fill="#000000">• Computational Engine</text>
<text text-anchor="middle" x="250" y="-165.6" font-family="Arial Bold" font-size="10.00" fill="#000000">• Algorithmic Transformations</text>
</g>
<!-- ReactiveValues&#45;&gt;DataProcessing -->
<g id="edge6" class="edge">
<title>ReactiveValues&#45;&gt;DataProcessing</title>
<path fill="none" stroke="#666666" d="M253,-469.2704C253,-469.2704 253,-221.89 253,-221.89"/>
<polygon fill="#666666" stroke="#666666" points="253,-214.89 256.1501,-221.8899 253,-218.39 253.0001,-221.89 253.0001,-221.89 253.0001,-221.89 253,-218.39 249.8501,-221.89 253,-214.89 253,-214.89"/>
<text text-anchor="middle" x="280.3531" y="-337.8" font-family="Times,serif" font-size="14.00" fill="#000000">Data Flow</text>
</g>
<!-- Database -->
<g id="node9" class="node">
<title>Database</title>
<polygon fill="#90ee90" stroke="#000000" points="213.5649,-72 112.4351,-72 112.4351,-16 213.5649,-16 213.5649,-72"/>
<text text-anchor="middle" x="163" y="-59" font-family="Arial Bold" font-size="10.00" fill="#000000">Data Sources</text>
<text text-anchor="middle" x="163" y="-47" font-family="Arial Bold" font-size="10.00" fill="#000000">• SQL Databases</text>
<text text-anchor="middle" x="163" y="-35" font-family="Arial Bold" font-size="10.00" fill="#000000">• CSV/Excel Files</text>
<text text-anchor="middle" x="163" y="-23" font-family="Arial Bold" font-size="10.00" fill="#000000">• External APIs</text>
</g>
<!-- DataProcessing&#45;&gt;Database -->
<g id="edge7" class="edge">
<title>DataProcessing&#45;&gt;Database</title>
<path fill="none" stroke="#666666" d="M193.3055,-158.4268C193.3055,-158.4268 193.3055,-79.1146 193.3055,-79.1146"/>
<polygon fill="#666666" stroke="#666666" points="193.3055,-72.1146 196.4556,-79.1146 193.3055,-75.6146 193.3056,-79.1146 193.3056,-79.1146 193.3056,-79.1146 193.3055,-75.6146 190.1556,-79.1147 193.3055,-72.1146 193.3055,-72.1146"/>
<text text-anchor="middle" x="217.9576" y="-117" font-family="Times,serif" font-size="14.00" fill="#000000">Optional Integration</text>
</g>
<!-- ComputeEngine -->
<g id="node10" class="node">
<title>ComputeEngine</title>
<polygon fill="#f0e68c" stroke="#000000" points="400.2962,-72 271.7038,-72 271.7038,-16 400.2962,-16 400.2962,-72"/>
<text text-anchor="middle" x="336" y="-59" font-family="Arial Bold" font-size="10.00" fill="#000000">Compute Resources</text>
<text text-anchor="middle" x="336" y="-47" font-family="Arial Bold" font-size="10.00" fill="#000000">• Parallel Processing</text>
<text text-anchor="middle" x="336" y="-35" font-family="Arial Bold" font-size="10.00" fill="#000000">• Distributed Computing</text>
<text text-anchor="middle" x="336" y="-23" font-family="Arial Bold" font-size="10.00" fill="#000000">• GPU Acceleration</text>
</g>
<!-- DataProcessing&#45;&gt;ComputeEngine -->
<g id="edge8" class="edge">
<title>DataProcessing&#45;&gt;ComputeEngine</title>
<path fill="none" stroke="#666666" d="M299.3865,-158.4268C299.3865,-158.4268 299.3865,-79.1146 299.3865,-79.1146"/>
<polygon fill="#666666" stroke="#666666" points="299.3865,-72.1146 302.5366,-79.1146 299.3865,-75.6146 299.3866,-79.1146 299.3866,-79.1146 299.3866,-79.1146 299.3865,-75.6146 296.2366,-79.1147 299.3865,-72.1146 299.3865,-72.1146"/>
<text text-anchor="middle" x="381.7444" y="-117" font-family="Times,serif" font-size="14.00" fill="#000000">Compute Tasks</text>
</g>
<!-- Client&#45;&gt;Server -->
<g id="edge1" class="edge">
<title>Client&#45;&gt;Server</title>
<path fill="none" stroke="#666666" stroke-dasharray="5,2" d="M752.6535,-772.9129C752.6535,-772.9129 752.6535,-863.1443 752.6535,-863.1443"/>
<polygon fill="#666666" stroke="#666666" points="752.6535,-870.1443 749.5036,-863.1442 752.6535,-866.6443 752.6536,-863.1443 752.6536,-863.1443 752.6536,-863.1443 752.6535,-866.6443 755.8036,-863.1443 752.6535,-870.1443 752.6535,-870.1443"/>
<text text-anchor="middle" x="965.7083" y="-816.2" font-family="Times,serif" font-size="14.00" fill="#000000">HTTP/WebSocket</text>
</g>
<!-- Server&#45;&gt;Client -->
<g id="edge2" class="edge">
<title>Server&#45;&gt;Client</title>
<path fill="none" stroke="#666666" stroke-dasharray="5,2" d="M773.3429,-867.6128C773.3429,-867.6128 773.3429,-777.1882 773.3429,-777.1882"/>
<polygon fill="#666666" stroke="#666666" points="773.3429,-770.1882 776.493,-777.1882 773.343,-773.6882 773.343,-777.1882 773.343,-777.1882 773.343,-777.1882 773.343,-773.6882 770.193,-777.1883 773.3429,-770.1882 773.3429,-770.1882"/>
<text text-anchor="middle" x="799.7083" y="-816.2" font-family="Times,serif" font-size="14.00" fill="#000000">HTTP/WebSocket</text>
</g>
</g>
</svg>

